<svg width="31" height="34" viewBox="0 0 31 34" fill="none" xmlns="http://www.w3.org/2000/svg">
<path d="M9.46694 21.1365L4.3983 23.9247C4.3395 23.956 4.31363 23.956 4.30187 23.956C4.30187 23.956 4.09019 23.9448 4.09019 23.7572V10.2741C4.09019 10.0864 4.29952 10.0753 4.30187 10.0753C4.31128 10.0753 4.3395 10.0753 4.3983 10.1065L7.52886 11.8246V7.33619L6.44457 6.74191C5.75307 6.3621 5.01924 6.19007 4.30422 6.19007C2.05803 6.1856 0 7.89026 0 10.2719V23.7549C0 26.1365 2.05803 27.8412 4.30187 27.8412C5.01689 27.8412 5.75072 27.6669 6.44222 27.2894L9.46458 25.6316V25.6406L13.5571 23.3975V23.3885L18.7339 20.5489C18.8233 20.4998 18.9104 20.4484 18.995 20.3948L15.7704 18.632C15.2365 18.3394 14.5779 18.3394 14.044 18.632L9.46694 21.1365Z" fill="white"/>
<path d="M28.2032 18.813L15.9114 12.0726C15.7821 12.0011 15.6504 11.9408 15.5186 11.8827V15.3992C15.5186 15.9846 15.8479 16.523 16.3795 16.8157L26.1592 22.1776C26.2086 22.2045 26.2604 22.2335 26.2604 22.3452C26.2604 22.4569 26.2086 22.486 26.1592 22.5128L13.8675 29.2532C13.8087 29.2845 13.7828 29.2845 13.7711 29.2845C13.7711 29.2845 13.5594 29.2733 13.5594 29.0856V25.5199L9.46686 27.763V29.0856C9.46686 31.4672 11.5249 33.1719 13.7687 33.1719C14.4837 33.1719 15.2176 32.9976 15.9091 32.6201L28.2008 25.8796C31.0656 24.309 31.0656 20.3814 28.2008 18.8108L28.2032 18.813Z" fill="white"/>
<path d="M13.5594 4.91438C13.5594 4.72671 13.7687 4.71554 13.771 4.71554C13.7805 4.71554 13.8087 4.71554 13.8675 4.74682L26.1592 11.4872C26.2086 11.5141 26.2603 11.5431 26.2603 11.6548C26.2603 11.7665 26.2086 11.7956 26.1592 11.8224L22.7558 13.6879L26.8484 15.931L28.2055 15.187C31.0703 13.6164 31.0703 9.68876 28.2055 8.11815L15.9114 1.37996C15.2199 1.00015 14.4861 0.828125 13.771 0.828125C11.5272 0.828125 9.46918 2.53278 9.46918 4.91438V19.0096L12.7103 17.2424C13.2489 16.9475 13.5805 16.4024 13.5805 15.8126L13.5617 4.91438H13.5594Z" fill="white"/>
</svg>
