<svg width="183" height="36" viewBox="0 0 183 36" fill="none" xmlns="http://www.w3.org/2000/svg">
<path d="M105.339 19.402C105.572 19.3796 105.796 19.3416 106.007 19.2858C106.353 19.1942 106.668 19.0624 106.948 18.8948C107.228 18.7272 107.473 18.5284 107.682 18.3005C107.889 18.0726 108.063 17.8246 108.202 17.5565C108.338 17.2884 108.442 17.0069 108.51 16.712C108.578 16.4171 108.611 16.1222 108.611 15.8228V15.7849C108.611 15.5011 108.578 15.2196 108.512 14.9404C108.444 14.6477 108.341 14.3684 108.204 14.1026C108.065 13.8345 107.894 13.5842 107.687 13.3541C107.477 13.1218 107.23 12.9207 106.951 12.7531C106.668 12.5833 106.353 12.4515 106.01 12.3577C105.659 12.2616 105.276 12.2125 104.864 12.2125H94.4518C94.2237 12.2125 94.0096 12.2482 93.8121 12.3197C93.6169 12.3912 93.4428 12.4962 93.2993 12.6347C93.1559 12.771 93.0453 12.9363 92.9677 13.1218C92.8901 13.3094 92.8548 13.5127 92.8548 13.7294L92.8595 23.5508C92.8595 23.6848 92.9747 23.7943 93.1159 23.7943H95.5502C95.6184 23.7943 95.6843 23.7675 95.7313 23.7228C95.7784 23.6781 95.8066 23.6156 95.8066 23.5508V19.4288H101.67L105.346 23.7049C105.396 23.7608 105.469 23.7943 105.546 23.7943H108.569C108.668 23.7943 108.759 23.7407 108.802 23.6558C108.844 23.5709 108.832 23.4703 108.769 23.3966L105.337 19.4064L105.339 19.402ZM104.82 16.8193H95.809V14.8197H104.82C104.972 14.8197 105.088 14.8488 105.182 14.8979C105.288 14.9538 105.372 15.023 105.441 15.1102C105.511 15.2018 105.565 15.3068 105.603 15.4296C105.64 15.5547 105.659 15.6799 105.659 15.8072V15.8184C105.659 15.9547 105.638 16.0842 105.598 16.2116C105.56 16.3345 105.506 16.4395 105.433 16.5311C105.363 16.6204 105.278 16.6897 105.172 16.7455C105.078 16.7947 104.968 16.8215 104.822 16.8215L104.82 16.8193Z" fill="white"/>
<path d="M131.854 12.3018C131.807 12.2326 131.727 12.1924 131.64 12.1924H128.986C128.883 12.1924 128.791 12.2505 128.751 12.3398L125.489 19.5584L122.615 13.2223C122.537 13.0547 122.436 12.9006 122.314 12.7643C122.191 12.6303 122.053 12.5141 121.9 12.418C121.745 12.3197 121.575 12.246 121.396 12.1924C121.215 12.1387 121.03 12.1119 120.839 12.1119H120.818C120.627 12.1119 120.442 12.1387 120.26 12.1924C120.082 12.246 119.912 12.3197 119.757 12.418C119.602 12.5163 119.463 12.6325 119.343 12.7665C119.221 12.9028 119.12 13.0547 119.044 13.2223L116.187 19.5584L112.924 12.3398C112.884 12.2505 112.79 12.1924 112.689 12.1924H110.036C109.949 12.1924 109.869 12.2326 109.822 12.3018C109.775 12.3711 109.766 12.456 109.801 12.532L114.423 22.7934C114.496 22.9587 114.597 23.1106 114.719 23.2447C114.841 23.3765 114.98 23.4927 115.135 23.5888C115.291 23.6848 115.458 23.7585 115.636 23.8122C115.817 23.8658 116.008 23.8926 116.203 23.8926C116.391 23.8926 116.58 23.8658 116.758 23.8122C116.935 23.7585 117.099 23.6848 117.252 23.5888C117.403 23.4927 117.539 23.3787 117.661 23.2469C117.784 23.1129 117.885 22.9587 117.958 22.7934L120.846 16.3814L123.753 22.8113C123.828 22.9744 123.925 23.1241 124.045 23.2559C124.165 23.3877 124.301 23.5016 124.452 23.5955C124.605 23.6915 124.772 23.763 124.948 23.8144C125.129 23.8658 125.315 23.8926 125.508 23.8926C125.694 23.8926 125.877 23.8658 126.053 23.8144C126.228 23.763 126.39 23.6893 126.543 23.5955C126.696 23.4994 126.832 23.3854 126.95 23.2514C127.07 23.1173 127.166 22.9677 127.239 22.8068L131.879 12.532C131.915 12.456 131.905 12.3711 131.858 12.3018H131.854Z" fill="white"/>
<path d="M147.01 23.4592L139.74 13.0793C139.542 12.7956 139.34 12.5722 139.124 12.4135C138.907 12.2549 138.667 12.1611 138.416 12.1611C138.164 12.1611 137.924 12.2549 137.708 12.4135C137.491 12.5722 137.289 12.7933 137.091 13.0793L129.821 23.4569C129.769 23.5329 129.765 23.6267 129.809 23.7071C129.854 23.7876 129.941 23.8367 130.035 23.8367H133.004C133.091 23.8367 133.171 23.7943 133.218 23.7273L138.413 16.2563L140.297 18.9663H137.722C137.618 18.9663 137.522 19.0199 137.47 19.1048L136.438 20.8072C136.327 20.9904 136.466 21.2205 136.689 21.2205H141.864L143.607 23.7273C143.654 23.7943 143.736 23.8367 143.821 23.8367H146.789C146.883 23.8367 146.97 23.7876 147.015 23.7071C147.059 23.6267 147.055 23.5329 147.003 23.4569L147.01 23.4592Z" fill="white"/>
<path d="M42.6689 16.7909L42.6209 16.7704L42.6114 16.7477L42.6209 16.7704L42.6689 16.7909Z" fill="white"/>
<path d="M42.6136 14.2623L42.6214 14.2477L42.6136 14.2623Z" fill="white"/>
<path d="M40.9578 12.2035C40.7955 12.2638 40.6614 12.3487 40.5462 12.4582C40.4309 12.5699 40.3439 12.6995 40.2827 12.8558C40.2216 13.01 40.1887 13.1865 40.1887 13.3764V23.8903H42.5525V19.0087L42.5572 18.9998L42.576 18.9528L42.583 18.935L42.6018 18.9283L42.6512 18.9081L42.6606 18.9037H54.235V16.8326H42.6606L42.6512 16.8282L42.6018 16.8081L42.583 16.8013L42.576 16.7835L42.5572 16.7366L42.5525 16.7276V14.279L42.5572 14.2701L42.576 14.2231L42.583 14.2053L42.6018 14.1986L42.6512 14.1785L42.6606 14.174H55.8485V12.1029H41.4987C41.3012 12.1029 41.1201 12.1342 40.9601 12.1945L40.9578 12.2035Z" fill="white"/>
<path d="M42.6209 18.971L42.6114 18.9937L42.6209 18.971L42.6689 18.9506L42.6209 18.971Z" fill="white"/>
<path d="M58.4378 12.2035C58.2756 12.2638 58.1415 12.3487 58.0262 12.4582C57.911 12.5699 57.824 12.6995 57.7628 12.8558C57.7017 13.01 57.6687 13.1865 57.6687 13.3764V23.8903H60.0325V19.0087L60.0372 18.9998L60.056 18.9528L60.0631 18.935L60.0819 18.9283L60.1313 18.9081L60.1407 18.9037H71.7151V16.8326H60.1407L60.1313 16.8282L60.0819 16.8081L60.0631 16.8013L60.056 16.7835L60.0372 16.7366L60.0325 16.7276V14.279L60.0372 14.2701L60.056 14.2231L60.0631 14.2053L60.0819 14.1986L60.1313 14.1785L60.1407 14.174H73.3286V12.1029H58.9788C58.7812 12.1029 58.6001 12.1342 58.4402 12.1945L58.4378 12.2035Z" fill="white"/>
<path d="M60.1489 16.7909L60.0986 16.7704L60.089 16.7477L60.0986 16.7704L60.1489 16.7909Z" fill="white"/>
<path d="M60.0937 14.2623L60.0989 14.2477L60.0937 14.2623Z" fill="white"/>
<path d="M60.0986 18.971L60.089 18.9937L60.0986 18.971L60.1489 18.9506L60.0986 18.971Z" fill="white"/>
<path d="M88.659 23.2067C88.8706 23.0659 89.0706 22.9073 89.2517 22.7375C89.6256 22.3867 89.922 21.9756 90.129 21.5199C90.336 21.0619 90.4418 20.5614 90.4418 20.0319V15.968C90.4418 15.4385 90.3383 14.9425 90.136 14.4957C89.9338 14.0489 89.635 13.6333 89.2517 13.2602C88.8683 12.8894 88.4379 12.6012 87.9722 12.4046C87.5088 12.208 86.9961 12.1096 86.4504 12.1096H78.771C78.2253 12.1096 77.7126 12.208 77.2492 12.4046C76.7835 12.6012 76.3531 12.8894 75.9697 13.2602C75.5863 13.6311 75.2876 14.0467 75.0854 14.4957C74.8831 14.9425 74.7796 15.4363 74.7796 15.968V20.0319C74.7796 20.5637 74.8854 21.0641 75.0901 21.5199C75.2971 21.9779 75.5934 22.3867 75.9674 22.7375C76.1485 22.9073 76.3484 23.0637 76.5601 23.2067C76.7718 23.3474 76.9999 23.4703 77.2351 23.5708C77.4703 23.6714 77.7196 23.7496 77.976 23.8054C78.2324 23.8613 78.4982 23.8881 78.7686 23.8881H86.448C86.7185 23.8881 86.9867 23.859 87.2407 23.8054C87.4971 23.7496 87.7464 23.6714 87.9816 23.5708C88.2168 23.4703 88.4449 23.3474 88.6566 23.2067H88.659ZM87.5794 21.3367C87.4312 21.4819 87.2571 21.5981 87.0643 21.6874C86.8667 21.7768 86.6621 21.8215 86.4504 21.8215H78.7686C78.557 21.8215 78.35 21.7768 78.1548 21.6874C77.9596 21.5981 77.7879 21.4819 77.6397 21.3367C77.4915 21.1937 77.3692 21.0261 77.2775 20.8385C77.1857 20.6486 77.1387 20.4497 77.1387 20.2442V15.7602C77.1387 15.5435 77.181 15.3358 77.2657 15.1436C77.3504 14.9537 77.468 14.7839 77.6138 14.6409C77.7596 14.498 77.936 14.3862 78.1336 14.3036C78.3312 14.2232 78.5452 14.1807 78.771 14.1807H86.4504C86.6738 14.1807 86.8879 14.2209 87.0878 14.3036C87.2854 14.3862 87.4618 14.498 87.6076 14.6409C87.7534 14.7817 87.871 14.9515 87.9557 15.1436C88.0404 15.3358 88.0827 15.5435 88.0827 15.758V20.2419C88.0827 20.4453 88.0357 20.6463 87.9416 20.8362C87.8522 21.0217 87.7299 21.1892 87.5794 21.3344V21.3367Z" fill="white"/>
<path d="M164.848 23.8904L161.011 19.3483L161.002 19.3372V19.3238L160.993 19.2545V19.2411L160.997 19.2299C161.016 19.192 161.056 19.1651 161.101 19.1651H161.15C161.555 19.1651 161.929 19.1182 162.26 19.0289C162.592 18.9373 162.895 18.8099 163.159 18.6491C163.422 18.4882 163.655 18.2961 163.853 18.0771C164.05 17.8582 164.217 17.6146 164.349 17.3532C164.481 17.0941 164.579 16.8148 164.645 16.5221C164.711 16.2317 164.744 15.9346 164.744 15.6374V15.6017C164.744 15.3246 164.711 15.0431 164.65 14.7706C164.584 14.4846 164.483 14.2076 164.354 13.9462C164.222 13.6848 164.055 13.439 163.857 13.2178C163.66 12.9944 163.425 12.8001 163.161 12.6392C162.895 12.4761 162.592 12.3465 162.258 12.2527C161.926 12.1589 161.552 12.1119 161.148 12.1119H150.074C149.877 12.1119 149.696 12.1432 149.536 12.2035C149.373 12.2639 149.239 12.3488 149.124 12.4582C149.009 12.5699 148.922 12.6995 148.861 12.8559C148.8 13.0101 148.767 13.1866 148.767 13.3765L148.771 23.8904H151.13V19.2701L151.135 19.2612L151.154 19.2143L151.161 19.1964L151.18 19.1897L151.229 19.1696L151.239 19.1651H157.897L157.907 19.1696L157.961 19.1942L157.97 19.1987L157.977 19.2076L161.933 23.8904H164.85H164.848ZM151.246 17.0963H151.236L151.227 17.0919L151.177 17.0717L151.159 17.065L151.152 17.0472L151.133 17.0003L151.128 16.9913V14.2813L151.133 14.2724L151.152 14.2254L151.159 14.2076L151.177 14.2009L151.227 14.1808L151.236 14.1763H161.098C161.315 14.1763 161.508 14.2187 161.67 14.3059C161.83 14.3908 161.964 14.5047 162.07 14.641C162.176 14.7773 162.253 14.9359 162.303 15.1079C162.352 15.2733 162.376 15.4453 162.376 15.6173V15.633C162.373 15.8139 162.347 15.9904 162.296 16.158C162.244 16.33 162.164 16.4886 162.058 16.6249C161.952 16.7634 161.816 16.8751 161.658 16.96C161.496 17.0449 161.308 17.0896 161.098 17.0896H151.243L151.246 17.0963Z" fill="white"/>
<path d="M151.199 14.2478L151.192 14.2624L151.199 14.2478Z" fill="white"/>
<path d="M182.998 20.4028V15.6374C182.998 15.3447 182.963 15.0498 182.894 14.7616C182.824 14.4734 182.723 14.1963 182.589 13.9372C182.455 13.678 182.285 13.4345 182.083 13.2133C181.883 12.9921 181.643 12.7978 181.375 12.6369C181.107 12.476 180.801 12.3465 180.467 12.2526C180.133 12.161 179.759 12.1141 179.355 12.1141H168.291C168.093 12.1141 167.912 12.1454 167.752 12.2057C167.592 12.266 167.456 12.3509 167.34 12.4604C167.225 12.5721 167.138 12.7017 167.077 12.8581C167.016 13.0122 166.983 13.1887 166.983 13.3786V22.628C166.983 22.8179 167.013 22.9944 167.077 23.1486C167.14 23.305 167.225 23.4345 167.34 23.5462C167.456 23.6579 167.59 23.7406 167.752 23.8009C167.912 23.8613 168.093 23.8925 168.291 23.8925H179.355C179.764 23.8925 180.145 23.8456 180.484 23.7563C180.822 23.6646 181.13 23.5373 181.398 23.3787C181.667 23.2201 181.904 23.0279 182.102 22.809C182.299 22.59 182.469 22.3487 182.603 22.0918C182.737 21.8349 182.836 21.5601 182.901 21.2741C182.967 20.9881 183 20.6955 183 20.405L182.998 20.4028ZM180.599 20.5994C180.599 20.7469 180.573 20.8943 180.524 21.0395C180.472 21.187 180.394 21.3188 180.288 21.435C180.18 21.5511 180.044 21.645 179.884 21.7142C179.721 21.7857 179.529 21.8215 179.312 21.8215H169.45L169.441 21.817L169.391 21.7969L169.373 21.7902L169.365 21.7723L169.344 21.7254L169.34 21.7165V14.2835L169.344 14.2745L169.365 14.2276L169.373 14.2097L169.391 14.203L169.441 14.1829L169.45 14.1785H179.312C179.519 14.1785 179.705 14.2142 179.867 14.2835C180.027 14.3527 180.164 14.4466 180.272 14.5605C180.38 14.6767 180.462 14.8085 180.516 14.9537C180.571 15.0989 180.599 15.2486 180.599 15.4005V20.5949V20.5994Z" fill="white"/>
<path d="M9.46694 22.1365L4.3983 24.9247C4.3395 24.956 4.31363 24.956 4.30187 24.956C4.30187 24.956 4.09019 24.9448 4.09019 24.7572V11.2741C4.09019 11.0864 4.29952 11.0753 4.30187 11.0753C4.31128 11.0753 4.3395 11.0753 4.3983 11.1065L7.52886 12.8246V8.33619L6.44457 7.74191C5.75307 7.3621 5.01924 7.19007 4.30422 7.19007C2.05803 7.1856 0 8.89026 0 11.2719V24.7549C0 27.1365 2.05803 28.8412 4.30187 28.8412C5.01689 28.8412 5.75072 28.6669 6.44222 28.2894L9.46458 26.6316V26.6406L13.5571 24.3975V24.3885L18.7339 21.5489C18.8233 21.4998 18.9104 21.4484 18.995 21.3948L15.7704 19.632C15.2365 19.3394 14.5779 19.3394 14.044 19.632L9.46694 22.1365Z" fill="white"/>
<path d="M28.2032 19.813L15.9114 13.0726C15.7821 13.0011 15.6504 12.9408 15.5186 12.8827V16.3992C15.5186 16.9846 15.8479 17.523 16.3795 17.8157L26.1592 23.1776C26.2086 23.2045 26.2604 23.2335 26.2604 23.3452C26.2604 23.4569 26.2086 23.486 26.1592 23.5128L13.8675 30.2532C13.8087 30.2845 13.7828 30.2845 13.7711 30.2845C13.7711 30.2845 13.5594 30.2733 13.5594 30.0856V26.5199L9.46686 28.763V30.0856C9.46686 32.4672 11.5249 34.1719 13.7687 34.1719C14.4837 34.1719 15.2176 33.9976 15.9091 33.6201L28.2008 26.8796C31.0656 25.309 31.0656 21.3814 28.2008 19.8108L28.2032 19.813Z" fill="white"/>
<path d="M13.5594 5.91438C13.5594 5.72671 13.7687 5.71554 13.771 5.71554C13.7805 5.71554 13.8087 5.71554 13.8675 5.74682L26.1592 12.4872C26.2086 12.5141 26.2603 12.5431 26.2603 12.6548C26.2603 12.7665 26.2086 12.7956 26.1592 12.8224L22.7558 14.6879L26.8484 16.931L28.2055 16.187C31.0703 14.6164 31.0703 10.6888 28.2055 9.11815L15.9114 2.37996C15.2199 2.00015 14.4861 1.82812 13.771 1.82812C11.5272 1.82812 9.46918 3.53278 9.46918 5.91438V20.0096L12.7103 18.2424C13.2489 17.9475 13.5805 17.4024 13.5805 16.8126L13.5617 5.91438H13.5594Z" fill="white"/>
</svg>
